<?xml version="1.0" encoding="utf-8"?>
<!-- Generator: Adobe Illustrator 27.0.1, SVG Export Plug-In . SVG Version: 6.00 Build 0)  -->
<svg version="1.1" id="Layer_1" xmlns="http://www.w3.org/2000/svg" xmlns:xlink="http://www.w3.org/1999/xlink" x="0px" y="0px"
	 viewBox="0 0 22 21.7" style="enable-background:new 0 0 22 21.7;" xml:space="preserve">
<style type="text/css">
	.st0{fill:#121252;}
</style>
<g id="a">
</g>
<g id="b">
</g>
<g id="c">
</g>
<g id="d">
	<g>
		<path class="st0" d="M5,2.4c0,1.3-1,2.4-2.5,2.4C1,4.7,0,3.6,0,2.4S1,0,2.5,0S5,1,5,2.4z M0.1,21.7V6.6h4.7v15.1
			C4.8,21.7,0.1,21.7,0.1,21.7z"/>
		<path class="st0" d="M7.6,11.4c0-1.9-0.1-3.5-0.1-4.8h4.1l0.2,2.1h0.1c0.6-1,2.1-2.4,4.7-2.4c3.1,0,5.4,2.1,5.4,6.5v8.9h-4.7v-8.4
			c0-2-0.7-3.3-2.4-3.3c-1.3,0-2.1,0.9-2.4,1.8c-0.1,0.3-0.2,0.7-0.2,1.2v8.7H7.6C7.6,21.7,7.6,11.4,7.6,11.4z"/>
	</g>
</g>
</svg>
