<svg width="40" height="40" viewBox="0 0 40 40" fill="none" xmlns="http://www.w3.org/2000/svg">
<g id="Felix_IconLibrary_Gift">
<path id="Vector" fill-rule="evenodd" clip-rule="evenodd" d="M29.4 11.7454H26.1819C26.7819 10.7817 26.9455 9.6181 26.6 8.50901C26.2364 7.36356 25.3091 6.4181 24.1455 6.05447C22.9273 5.67265 21.6546 5.87265 20.6546 6.6181C20.4 6.79992 20.1819 6.99992 20 7.23628C19.8 6.99992 19.5819 6.79992 19.3455 6.6181C18.3455 5.87265 17.0728 5.67265 15.8546 6.05447C14.7091 6.4181 13.7637 7.34537 13.4 8.50901C13.0546 9.63628 13.2182 10.7999 13.8182 11.7454H10.6C9.60005 11.7454 8.80005 12.5636 8.80005 13.5454V32.3454C8.80005 33.3454 9.61823 34.1454 10.6 34.1454H29.4C30.4 34.1454 31.2 33.3272 31.2 32.3454V13.5454C31.2 12.5454 30.3819 11.7454 29.4 11.7454V11.7454ZM29.4 22.0363H20.9273V13.5636H22.9637C22.9637 13.5636 23.0182 13.5636 23.0364 13.5636H29.4V22.0545V22.0363ZM21.7455 8.07265C22.291 7.67265 22.9637 7.58174 23.6182 7.78174C24.2 7.96356 24.691 8.45446 24.8728 9.03628C25.091 9.70901 24.9819 10.3817 24.5819 10.909C24.2 11.4363 23.6 11.7454 22.9455 11.7454H20.9091V9.70901C20.9091 9.05447 21.2182 8.45447 21.7455 8.07265V8.07265ZM15.4182 10.909C15.0182 10.3636 14.9273 9.70901 15.1273 9.03628C15.3091 8.45446 15.8 7.96356 16.3819 7.78174C16.6 7.70901 16.8364 7.67265 17.0546 7.67265C17.491 7.67265 17.891 7.79992 18.2546 8.07265C18.7819 8.45447 19.091 9.05447 19.091 9.70901V11.7454H17.0546C16.4 11.7454 15.8 11.4363 15.4182 10.909V10.909ZM17.0182 13.5454C17.0182 13.5454 17.0364 13.5454 17.0546 13.5454H19.091V22.0181H10.6V13.5636H17.0182V13.5454ZM10.6 23.8363H19.091V32.3272H10.6182V23.8363H10.6ZM20.891 32.309V23.8363H29.3637V32.309H20.891Z" fill="#121252"/>
</g>
</svg>
