<?xml version="1.0" encoding="utf-8"?>
<!-- Generator: Adobe Illustrator 27.0.1, SVG Export Plug-In . SVG Version: 6.00 Build 0)  -->
<svg version="1.1" id="Layer_1" xmlns="http://www.w3.org/2000/svg" xmlns:xlink="http://www.w3.org/1999/xlink" x="0px" y="0px"
	 viewBox="0 0 22 22" style="enable-background:new 0 0 22 22;" xml:space="preserve">
<style type="text/css">
	.st0{fill:#121252;}
</style>
<g id="a">
</g>
<g id="b">
</g>
<g id="c">
</g>
<g id="d">
	<g>
		<path class="st0" d="M15.7,22H6.3C2.8,22,0,19.2,0,15.7V6.3C0,2.8,2.8,0,6.3,0h9.5C19.2,0,22,2.8,22,6.3v9.5
			C22,19.2,19.2,22,15.7,22L15.7,22z M6.3,1.9c-2.4,0-4.4,2-4.4,4.4v9.5c0,2.4,2,4.4,4.4,4.4h9.5c2.4,0,4.4-2,4.4-4.4V6.3
			c0-2.4-2-4.4-4.4-4.4H6.3z"/>
		<path class="st0" d="M11,16.6c-3.1,0-5.6-2.5-5.6-5.6S7.9,5.4,11,5.4s5.6,2.5,5.6,5.6S14.1,16.6,11,16.6z M11,7.3
			c-2.1,0-3.7,1.7-3.7,3.7s1.7,3.7,3.7,3.7s3.7-1.7,3.7-3.7S13.1,7.3,11,7.3z"/>
		<path class="st0" d="M18.2,5c0,0.7-0.6,1.4-1.4,1.4S15.5,5.8,15.5,5s0.6-1.4,1.4-1.4C17.6,3.7,18.2,4.3,18.2,5z"/>
	</g>
</g>
</svg>
