<svg xmlns="http://www.w3.org/2000/svg" width="40" height="40" viewBox="0 0 40 40" fill="none">
  <path fill-rule="evenodd" clip-rule="evenodd" d="M33.1818 14.4728C33.5272 14.1091 33.4909 13.5273 33.1272 13.1819C32.7454 12.8364 32.1818 12.8728 31.8363 13.2364L20.8727 25.291C20.6 25.1637 20.309 25.091 20 25.091C18.8363 25.091 17.8727 26.0364 17.8727 27.2182C17.8727 28.4 18.8181 29.3455 20 29.3455C21.1818 29.3455 22.1272 28.4 22.1272 27.2182C22.1272 27.0546 22.0727 26.9091 22.0363 26.7455L33.2 14.4728H33.1818Z" fill="#121252"/>
  <path fill-rule="evenodd" clip-rule="evenodd" d="M30.6182 21.3454C31.8 23.2545 32.4909 25.4909 32.4909 27.9091C32.4909 28.4182 32.8909 28.8182 33.4 28.8182C33.9091 28.8182 34.3091 28.4182 34.3091 27.9091C34.3091 24.9636 33.4182 22.2363 31.8909 19.9454L30.6182 21.3454Z" fill="#121252"/>
  <path fill-rule="evenodd" clip-rule="evenodd" d="M25.1636 16.5454L26.4364 15.1454C24.5091 14.1636 22.3273 13.6 20 13.6C12.1091 13.6 5.69092 20.0182 5.69092 27.9091C5.69092 28.4182 6.09092 28.8182 6.60001 28.8182C7.1091 28.8182 7.5091 28.4182 7.5091 27.9091C7.5091 21.0182 13.1091 15.4182 20 15.4182C21.8364 15.4182 23.5818 15.8363 25.1636 16.5454Z" fill="#121252"/>
</svg>